<mxfile host="app.diagrams.net" modified="2021-06-18T07:36:40.889Z" agent="5.0 (Windows NT 10.0; Win64; x64) AppleWebKit/537.36 (KHTML, like Gecko) Chrome/91.0.4472.106 Safari/537.36" etag="ZMF_GlqTGpAitwyL8EC6" version="14.8.0" type="github">
  <diagram id="vSPBdc7jzsEjaOXV7GwO" name="Page-1">
    <mxGraphModel dx="2858" dy="2258" grid="1" gridSize="10" guides="1" tooltips="1" connect="1" arrows="1" fold="1" page="1" pageScale="1" pageWidth="827" pageHeight="1169" math="0" shadow="0">
      <root>
        <mxCell id="0" />
        <mxCell id="1" parent="0" />
        <mxCell id="MVXOw3qboZe7vdTZWIGV-15" value="" style="rounded=1;whiteSpace=wrap;html=1;fillColor=#fff2cc;strokeColor=none;dashed=1;dashPattern=1 1;" vertex="1" parent="1">
          <mxGeometry x="120" y="600" width="120" height="60" as="geometry" />
        </mxCell>
        <mxCell id="MVXOw3qboZe7vdTZWIGV-16" value="" style="rounded=1;whiteSpace=wrap;html=1;strokeWidth=2;fillWeight=4;hachureGap=8;hachureAngle=45;fillColor=#1ba1e2;sketch=1;dashed=1;dashPattern=1 1;" vertex="1" parent="1">
          <mxGeometry x="110" y="800" width="120" height="60" as="geometry" />
        </mxCell>
        <mxCell id="MVXOw3qboZe7vdTZWIGV-21" style="edgeStyle=orthogonalEdgeStyle;rounded=0;orthogonalLoop=1;jettySize=auto;html=1;" edge="1" parent="1" source="MVXOw3qboZe7vdTZWIGV-18" target="MVXOw3qboZe7vdTZWIGV-19">
          <mxGeometry relative="1" as="geometry" />
        </mxCell>
        <mxCell id="MVXOw3qboZe7vdTZWIGV-18" value="&#xa;&#xa;&lt;span style=&quot;color: rgba(0, 0, 0, 0); font-family: monospace; font-size: 0px; font-style: normal; font-weight: 400; letter-spacing: normal; text-indent: 0px; text-transform: none; word-spacing: 0px; background-color: rgb(248, 249, 250); display: inline; float: none;&quot;&gt;&amp;nbsp;&lt;/span&gt;&#xa;&#xa;" style="rounded=1;whiteSpace=wrap;html=1;strokeWidth=2;fillWeight=4;hachureGap=8;hachureAngle=45;fillColor=#1ba1e2;sketch=1;dashed=1;dashPattern=1 1;direction=south;rotation=90;" vertex="1" parent="1">
          <mxGeometry x="-620" y="-480" width="60" height="120" as="geometry" />
        </mxCell>
        <mxCell id="MVXOw3qboZe7vdTZWIGV-22" style="edgeStyle=orthogonalEdgeStyle;rounded=0;orthogonalLoop=1;jettySize=auto;html=1;entryX=1;entryY=0.5;entryDx=0;entryDy=0;exitX=0.583;exitY=1;exitDx=0;exitDy=0;exitPerimeter=0;" edge="1" parent="1" source="MVXOw3qboZe7vdTZWIGV-19" target="MVXOw3qboZe7vdTZWIGV-20">
          <mxGeometry relative="1" as="geometry" />
        </mxCell>
        <mxCell id="MVXOw3qboZe7vdTZWIGV-19" value="" style="rounded=1;whiteSpace=wrap;html=1;strokeWidth=2;fillWeight=4;hachureGap=8;hachureAngle=45;fillColor=#1ba1e2;sketch=1;dashed=1;dashPattern=1 1;" vertex="1" parent="1">
          <mxGeometry x="30" y="-450" width="120" height="60" as="geometry" />
        </mxCell>
        <mxCell id="MVXOw3qboZe7vdTZWIGV-20" value="" style="rounded=1;whiteSpace=wrap;html=1;strokeWidth=2;fillWeight=4;hachureGap=8;hachureAngle=45;fillColor=#1ba1e2;sketch=1;dashed=1;dashPattern=1 1;" vertex="1" parent="1">
          <mxGeometry x="-320" y="-210" width="120" height="60" as="geometry" />
        </mxCell>
        <mxCell id="MVXOw3qboZe7vdTZWIGV-23" value="" style="verticalLabelPosition=bottom;verticalAlign=top;html=1;shape=mxgraph.basic.smiley;dashed=1;dashPattern=1 1;" vertex="1" parent="1">
          <mxGeometry x="-310" y="-680" width="100" height="100" as="geometry" />
        </mxCell>
        <mxCell id="MVXOw3qboZe7vdTZWIGV-24" value="" style="rounded=1;whiteSpace=wrap;html=1;strokeWidth=2;fillWeight=4;hachureGap=8;hachureAngle=45;fillColor=#1ba1e2;sketch=1;dashed=1;dashPattern=1 1;" vertex="1" parent="1">
          <mxGeometry x="-610" y="-200" width="120" height="60" as="geometry" />
        </mxCell>
        <mxCell id="MVXOw3qboZe7vdTZWIGV-25" value="" style="whiteSpace=wrap;html=1;shape=mxgraph.basic.isocube;isoAngle=15;dashed=1;dashPattern=1 1;" vertex="1" parent="1">
          <mxGeometry x="-680" y="-660" width="100" height="100" as="geometry" />
        </mxCell>
        <mxCell id="MVXOw3qboZe7vdTZWIGV-26" value="" style="verticalLabelPosition=bottom;verticalAlign=top;html=1;shape=mxgraph.basic.smiley;dashed=1;dashPattern=1 1;" vertex="1" parent="1">
          <mxGeometry x="160" y="-660" width="100" height="100" as="geometry" />
        </mxCell>
        <mxCell id="MVXOw3qboZe7vdTZWIGV-27" value="" style="verticalLabelPosition=bottom;verticalAlign=top;html=1;shape=mxgraph.basic.sun;dashed=1;dashPattern=1 1;sketch=1;shadow=0;" vertex="1" parent="1">
          <mxGeometry x="390" y="-260" width="100" height="100" as="geometry" />
        </mxCell>
      </root>
    </mxGraphModel>
  </diagram>
</mxfile>
